<svg xmlns="http://www.w3.org/2000/svg" xmlns:xlink="http://www.w3.org/1999/xlink" xmlns:lucid="lucid" width="1360" height="1760"><g transform="translate(0 0)" lucid:page-tab-id="0_0"><path d="M0 0h1360v1760H0z" fill="#fff"/><path d="M200 290c0 38.66-31.34 70-70 70s-70-31.34-70-70 31.34-70 70-70 70 31.34 70 70z" fill="#a3d977"/><path d="M197.6 308.1l-.43 1.66-1.57 4.7-1.9 4.6-2.23 4.45-.87 1.48m-5.08 7.62l-2.6 3.23-3.44 3.68-3.68 3.44-3.2 2.58m-7.62 5.08l-1.5.9-4.46 2.22-4.6 1.9-4.7 1.56-1.6.4m-8.98 1.8l-4.12.44-5.02.18-5.07-.18-4.07-.44m-8.97-1.8l-1.66-.4-4.7-1.58-4.6-1.9-4.45-2.23-1.48-.87m-7.62-5.08l-3.23-2.6-3.68-3.44-3.44-3.68-2.58-3.2m-5.08-7.62l-.9-1.5L66.3 319l-1.9-4.6-1.56-4.7-.4-1.6m-1.8-8.98l-.44-4.12L60 290l.18-5.07.44-4.07m1.8-8.97l.4-1.66 1.58-4.7 1.9-4.6 2.23-4.45.87-1.48m5.08-7.62l2.6-3.23 3.44-3.68 3.68-3.44 3.2-2.58m7.62-5.08l1.5-.9 4.46-2.22 4.6-1.9 4.7-1.56 1.6-.4m8.98-1.8l4.12-.44L130 220l5.07.18 4.07.44m8.97 1.8l1.66.4 4.7 1.58 4.6 1.9 4.45 2.23 1.48.87m7.62 5.08l3.23 2.6 3.68 3.44 3.44 3.68 2.58 3.2m5.08 7.62l.9 1.5 2.22 4.46 1.9 4.6 1.56 4.7.4 1.6m1.8 8.98l.44 4.12.18 5.02-.18 5.07-.44 4.07" stroke="#000" stroke-width="2" fill="none"/><use xlink:href="#a" transform="matrix(1,0,0,1,60,220) translate(47.555 62.525)"/><use xlink:href="#b" transform="matrix(1,0,0,1,60,220) translate(31.554999999999993 84.125)"/><path d="M400 210c0 38.66-31.34 70-70 70s-70-31.34-70-70 31.34-70 70-70 70 31.34 70 70z" fill="#a3d977"/><path d="M397.6 228.1l-.43 1.66-1.57 4.7-1.9 4.6-2.23 4.45-.87 1.48m-5.08 7.62l-2.6 3.23-3.44 3.68-3.68 3.44-3.2 2.58m-7.62 5.08l-1.5.9-4.46 2.22-4.6 1.9-4.7 1.56-1.6.4m-8.98 1.8l-4.12.44-5.02.18-5.07-.18-4.07-.44m-8.97-1.8l-1.66-.4-4.7-1.58-4.6-1.9-4.45-2.23-1.48-.87m-7.62-5.08l-3.23-2.6-3.68-3.44-3.44-3.68-2.58-3.2m-5.08-7.62l-.9-1.5-2.22-4.46-1.9-4.6-1.56-4.7-.4-1.6m-1.8-8.98l-.44-4.12L260 210l.18-5.07.44-4.07m1.8-8.97l.4-1.66 1.58-4.7 1.9-4.6 2.23-4.45.87-1.48m5.08-7.62l2.6-3.23 3.44-3.68 3.68-3.44 3.2-2.58m7.62-5.08l1.5-.9 4.46-2.22 4.6-1.9 4.7-1.56 1.6-.4m8.98-1.8l4.12-.44L330 140l5.07.18 4.07.44m8.97 1.8l1.66.4 4.7 1.58 4.6 1.9 4.45 2.23 1.48.87m7.62 5.08l3.23 2.6 3.68 3.44 3.44 3.68 2.58 3.2m5.08 7.62l.9 1.5 2.22 4.46 1.9 4.6 1.56 4.7.4 1.6m1.8 8.98l.44 4.12.18 5.02-.18 5.07-.44 4.07" stroke="#000" stroke-width="2" fill="none"/><use xlink:href="#c" transform="matrix(1,0,0,1,260,140) translate(10.729999999999984 62.525)"/><use xlink:href="#d" transform="matrix(1,0,0,1,260,140) translate(97.38000000000001 62.525)"/><use xlink:href="#e" transform="matrix(1,0,0,1,260,140) translate(39.05499999999999 84.125)"/><path d="M610 210c0 33.14-26.86 60-60 60s-60-26.86-60-60 26.86-60 60-60 60 26.86 60 60z" fill="#a3d977"/><path d="M606.37 230.52l-1.48 3.74-2.2 4.46-2.6 4.3-2.92 4.05-1.25 1.47m-7.4 7.38l-2.06 1.72-4.1 2.9-4.3 2.5-4.5 2.15-3.06 1.15m-10.1 2.7l-1.12.24-4.97.55-4.3.15-5.06-.2-4.97-.63-.4-.1m-10.1-2.7l-3.73-1.48-4.46-2.2-4.3-2.6-4.05-2.92-1.47-1.25m-7.38-7.4l-1.72-2.06-2.9-4.1-2.5-4.3-2.15-4.5-1.15-3.06m-2.7-10.1l-.24-1.12-.55-4.97-.15-4.3.2-5.06.63-4.97.1-.4m2.7-10.1l1.48-3.73 2.2-4.46 2.6-4.3 2.92-4.05 1.25-1.47m7.4-7.38l2.06-1.72 4.1-2.9 4.3-2.5 4.5-2.15 3.06-1.15m10.1-2.7l1.12-.24 4.97-.55 4.3-.15 5.06.2 4.97.63.4.1m10.1 2.7l3.73 1.48 4.46 2.2 4.3 2.6 4.05 2.92 1.47 1.25m7.38 7.4l1.72 2.06 2.9 4.1 2.5 4.3 2.15 4.5 1.15 3.06m2.7 10.1l.24 1.12.55 4.97.15 4.3-.2 5.06-.63 4.97-.1.4" stroke="#000" stroke-width="2" fill="none"/><use xlink:href="#f" transform="matrix(1,0,0,1,490,150) translate(32.055 63.15)"/><path d="M880 290c0 49.7-40.3 90-90 90s-90-40.3-90-90 40.3-90 90-90 90 40.3 90 90z" stroke="#000" stroke-width="2" fill="#fff"/><use xlink:href="#g" transform="matrix(1,0,0,1,700,200) translate(28.604999999999997 93.15)"/><path d="M1060 370c0 38.66-31.34 70-70 70s-70-31.34-70-70 31.34-70 70-70 70 31.34 70 70z" stroke="#000" stroke-width="2" fill="#fff"/><use xlink:href="#h" transform="matrix(1,0,0,1,920,300) translate(28.019814814814815 56.44166666666667)"/><use xlink:href="#i" transform="matrix(1,0,0,1,920,300) translate(33.945740740740746 56.44166666666667)"/><use xlink:href="#j" transform="matrix(1,0,0,1,920,300) translate(30.493888888888883 77.775)"/><use xlink:href="#k" transform="matrix(1,0,0,1,920,300) translate(38.07166666666667 96.97500000000001)"/><path d="M1260 370c0 33.14-26.86 60-60 60s-60-26.86-60-60 26.86-60 60-60 60 26.86 60 60z" stroke="#000" stroke-width="2" fill="#fff"/><use xlink:href="#l" transform="matrix(1,0,0,1,1140,310) translate(30.054999999999993 63.15)"/><path d="M1061 370h59.76" stroke="#000" stroke-width="2" fill="none"/><path d="M1061 371h-1.04l.04-1-.04-1h1.04zM1135.76 370l-14.26 4.64v-9.28z"/><path d="M1139 370l-18.5 6v-12zm-16.5 3.26l10.03-3.26-10.03-3.26z"/><path d="M480 440c0 33.14-26.86 60-60 60s-60-26.86-60-60 26.86-60 60-60 60 26.86 60 60z" fill="#a3d977"/><path d="M476.37 460.52l-1.48 3.74-2.2 4.46-2.6 4.3-2.92 4.05-1.25 1.47m-7.4 7.38l-2.06 1.72-4.1 2.9-4.3 2.5-4.5 2.15-3.06 1.15m-10.1 2.7l-1.12.24-4.97.55-4.3.15-5.06-.2-4.97-.63-.4-.1m-10.1-2.7l-3.73-1.48-4.46-2.2-4.3-2.6-4.05-2.92-1.47-1.25m-7.38-7.4l-1.72-2.06-2.9-4.1-2.5-4.3-2.15-4.5-1.15-3.06m-2.7-10.1l-.24-1.12-.55-4.97-.15-4.3.2-5.06.63-4.97.1-.4m2.7-10.1l1.48-3.73 2.2-4.46 2.6-4.3 2.92-4.05 1.25-1.47m7.4-7.38l2.06-1.72 4.1-2.9 4.3-2.5 4.5-2.15 3.06-1.15m10.1-2.7l1.12-.24 4.97-.55 4.3-.15 5.06.2 4.97.63.4.1m10.1 2.7l3.73 1.48 4.46 2.2 4.3 2.6 4.05 2.92 1.47 1.25m7.38 7.4l1.72 2.06 2.9 4.1 2.5 4.3 2.15 4.5 1.15 3.06m2.7 10.1l.24 1.12.55 4.97.15 4.3-.2 5.06-.63 4.97-.1.4" stroke="#000" stroke-width="2" fill="none"/><use xlink:href="#m" transform="matrix(1,0,0,1,360,380) translate(35.53 51.9)"/><use xlink:href="#n" transform="matrix(1,0,0,1,360,380) translate(24.554999999999993 73.5)"/><path d="M189.02 250.58l8.53-6.4 28.1-23.6 4.3-2.78 3.76-2.07 3.56-1.63 3.5-1.3.28-.1" stroke="#000" stroke-width="2" fill="none"/><path d="M189.64 251.37l-.84.65-1.14-1.64.75-.6zM255.8 210.48l-13.4 6.72-1.4-9.17z"/><path d="M259 210l-17.4 8.7-1.8-11.88zm-15.83 5.7l9.43-4.73-10.4-1.73z"/><path d="M401 210h69.76" stroke="#000" stroke-width="2" fill="none"/><path d="M401 211h-1.04l.04-1-.04-1H401zM485.76 210l-14.26 4.64v-9.28z"/><path d="M489 210l-18.5 6v-12zm-16.5 3.26l10.03-3.26-10.03-3.26z"/><path d="M961.98 304.78l-2.92-6.53-3.26-6.34-3.52-6-3.7-5.58-3.8-5.07-3.8-4.55-3.78-4.03-3.7-3.53-3.6-3.08-3.5-2.67-3.4-2.3-3.26-1.95-3.16-1.66-3.06-1.4-2.97-1.18-2.9-.94-2.82-.76-2.77-.58-2.72-.4-2.7-.27-2.66-.1-2.66.04-1.7.14" stroke="#000" stroke-width="2" fill="none"/><path d="M963.34 305.3l-1.85.77-.42-.85 1.8-.87zM890.2 250.68l-15-.8 12.6-8.15z"/><path d="M891.5 251.75l-19.4-1.02 16.3-10.6zm-13.16-2.7l10.53.56-1.7-6.3z"/><path d="M867.2 338.17l6.67 4.92 23.54 20.46 3.54 2.1.47.24" stroke="#000" stroke-width="2" fill="none"/><path d="M867.83 337.4l-1.24 1.56-.73-.57.65-1 .42-.72zM915.85 369.26l-14.95 1.28 2.1-9.03z"/><path d="M919 370l-19.38 1.65 2.73-11.7zm-16.8-.58l10.5-.9-9.03-5.44z"/><path d="M724.4 226.96l-35.7-33.08-8.26-6.8-6.3-4.74-5.2-3.6-4.48-2.8-3.96-2.28-3.56-1.84-3.25-1.52-3-1.25-2.8-1.02-2.64-.85-2.5-.68-2.37-.55-2.3-.43-2.2-.3-2.13-.23-2.07-.13-2.04-.04-2 .05-1.97.13-1.97.23-1.95.3-1.95.38-1.96.47-1.75.5" stroke="#000" stroke-width="2" fill="none"/><path d="M725.82 226.9l-1.36 1.47-.73-.68 1.36-1.48zM617.6 171.3l-14.85 2.18L613.48 163z"/><path d="M619.1 172.1l-19.25 2.82 13.9-13.6zm-13.45-.05l10.43-1.53-2.9-5.84z"/><path d="M600.42 244.3l36.56 26.63 7.1 4.4 5.73 3.15 5.1 2.48 4.8 2.03 4.64 1.7 4.65 1.43 4.74 1.2 4.96 1 2.13.32" stroke="#000" stroke-width="2" fill="none"/><path d="M601 243.5l-1.17 1.6-.8-.58 1.08-1.5.08-.13zM695.77 289.76l-14.57 3.57.7-9.25z"/><path d="M699 290l-18.9 4.63.9-12zm-16.7 2.03l10.25-2.5-9.77-4z"/><path d="M517.7 158.26l-1.7-3.3-1.3-3.15-.96-3.06-.63-3-.34-2.97-.08-2.94.2-2.94.46-2.95.74-2.96 1.05-3 1.37-2.97 1.7-2.97 2.04-2.92 2.4-2.82 2.7-2.66 2.97-2.44 3.18-2.15 3.3-1.82 3.33-1.46 3.32-1.12 3.22-.76 3.1-.44 2.93-.15 2.97.13 3.05.4 3.1.72 3.17 1.03 3.15 1.38 3.1 1.68 2.95 2 2.78 2.26 2.53 2.48 2.25 2.66 1.95 2.77 1.63 2.85 1.33 2.9 1.03 2.93.73 2.95.45 2.96.18 2.98-.07 2.2" stroke="#000" stroke-width="2" fill="none"/><path d="M518.92 158.72l-1.3.75-.44.32-.4-1.2 1.88-.66zM591.2 142.53l-8.77 12.17-.06-15z"/><path d="M592.82 142l-11.38 15.78-.07-19.46zm-9.4 9.62l6.17-8.56-6.22-2z"/><path d="M763.03 203.08l-1.33-4.68-.78-4.34-.3-4.07.07-3.86.44-3.67.78-3.5 1.12-3.36 1.43-3.22 1.76-3.07 2.06-2.9 2.37-2.73 2.65-2.5 2.9-2.23 3.1-1.92 3.2-1.6 3.28-1.22 3.27-.86 3.2-.52 3.12-.2 1.93.05 2.82.28 2.86.56 2.9.86 2.88 1.14 2.84 1.45 2.75 1.75 2.63 2.03 2.45 2.3 2.23 2.5 2 2.72 1.72 2.9 1.45 3.02 1.17 3.15.87 3.28.56 3.38.26 3.5-.02 1.18" stroke="#000" stroke-width="2" fill="none"/><path d="M764.15 203.77l-.18.05-1.74.58-.2-1.16 1.98-.32zM834.1 190.25l-7.6 12.93-1.46-14.93z"/><path d="M835.65 189.57l-9.86 16.77-1.9-19.36zm-8.46 10.45l5.33-9.1-6.36-1.4z"/><path d="M481 440l229.07 3.06 30-1.87 25.82-2.7 23.9-3.54 23.18-4.42 23.24-5.45 24-6.72 25.42-8.27 21.16-7.87" stroke="#000" stroke-width="2" fill="none"/><path d="M481.02 439l-.03 2h-1.04l.04-1-.04-1zM909.17 406.28l-3.38-8.63 14.96-.9z"/><path d="M908.74 407.93l-4.4-11.2 19.43-1.15zm-1.52-9.36l2.38 6.06 8.15-6.7z"/><defs><path d="M190 0L58-211 59 0H30v-248h39L202-35l-2-213h31V0h-41" id="o"/><path d="M33 0v-248h34V0H33" id="p"/><path d="M240 0l2-218c-23 76-54 145-80 218h-23L58-218 59 0H30v-248h44l77 211c21-75 51-140 76-211h43V0h-30" id="q"/><path d="M30 0v-248h187v28H63v79h144v27H63v87h162V0H30" id="r"/><g id="a"><use transform="matrix(0.05,0,0,0.05,0,0)" xlink:href="#o"/><use transform="matrix(0.05,0,0,0.05,12.950000000000001,0)" xlink:href="#p"/><use transform="matrix(0.05,0,0,0.05,17.950000000000003,0)" xlink:href="#q"/><use transform="matrix(0.05,0,0,0.05,32.900000000000006,0)" xlink:href="#r"/></g><path d="M233-177c-1 41-23 64-60 70L243 0h-38l-65-103H63V0H30v-248c88 3 205-21 203 71zM63-129c60-2 137 13 137-47 0-61-80-42-137-45v92" id="s"/><path d="M100-194c63 0 86 42 84 106H49c0 40 14 67 53 68 26 1 43-12 49-29l28 8c-11 28-37 45-77 45C44 4 14-33 15-96c1-61 26-98 85-98zm52 81c6-60-76-77-97-28-3 7-6 17-6 28h103" id="t"/><path d="M135-143c-3-34-86-38-87 0 15 53 115 12 119 90S17 21 10-45l28-5c4 36 97 45 98 0-10-56-113-15-118-90-4-57 82-63 122-42 12 7 21 19 24 35" id="u"/><path d="M141-36C126-15 110 5 73 4 37 3 15-17 15-53c-1-64 63-63 125-63 3-35-9-54-41-54-24 1-41 7-42 31l-33-3c5-37 33-52 76-52 45 0 72 20 72 64v82c-1 20 7 32 28 27v20c-31 9-61-2-59-35zM48-53c0 20 12 33 32 33 41-3 63-29 60-74-43 2-92-5-92 41" id="v"/><path d="M114-163C36-179 61-72 57 0H25l-1-190h30c1 12-1 29 2 39 6-27 23-49 58-41v29" id="w"/><path d="M96-169c-40 0-48 33-48 73s9 75 48 75c24 0 41-14 43-38l32 2c-6 37-31 61-74 61-59 0-76-41-82-99-10-93 101-131 147-64 4 7 5 14 7 22l-32 3c-4-21-16-35-41-35" id="x"/><path d="M106-169C34-169 62-67 57 0H25v-261h32l-1 103c12-21 28-36 61-36 89 0 53 116 60 194h-32v-121c2-32-8-49-39-48" id="y"/><g id="b"><use transform="matrix(0.05,0,0,0.05,0,0)" xlink:href="#s"/><use transform="matrix(0.05,0,0,0.05,12.950000000000001,0)" xlink:href="#t"/><use transform="matrix(0.05,0,0,0.05,22.950000000000003,0)" xlink:href="#u"/><use transform="matrix(0.05,0,0,0.05,31.950000000000003,0)" xlink:href="#t"/><use transform="matrix(0.05,0,0,0.05,41.95,0)" xlink:href="#v"/><use transform="matrix(0.05,0,0,0.05,51.95,0)" xlink:href="#w"/><use transform="matrix(0.05,0,0,0.05,57.900000000000006,0)" xlink:href="#x"/><use transform="matrix(0.05,0,0,0.05,66.9,0)" xlink:href="#y"/></g><path d="M63-220v92h138v28H63V0H30v-248h175v28H63" id="z"/><path d="M210-169c-67 3-38 105-44 169h-31v-121c0-29-5-50-35-48C34-165 62-65 56 0H25l-1-190h30c1 10-1 24 2 32 10-44 99-50 107 0 11-21 27-35 58-36 85-2 47 119 55 194h-31v-121c0-29-5-49-35-48" id="A"/><path d="M24-231v-30h32v30H24zM24 0v-190h32V0H24" id="B"/><path d="M24 0v-261h32V0H24" id="C"/><path d="M59-47c-2 24 18 29 38 22v24C64 9 27 4 27-40v-127H5v-23h24l9-43h21v43h35v23H59v120" id="D"/><path d="M179-190L93 31C79 59 56 82 12 73V49c39 6 53-20 64-50L1-190h34L92-34l54-156h33" id="E"/><g id="c"><use transform="matrix(0.05,0,0,0.05,0,0)" xlink:href="#z"/><use transform="matrix(0.05,0,0,0.05,10.950000000000001,0)" xlink:href="#v"/><use transform="matrix(0.05,0,0,0.05,20.950000000000003,0)" xlink:href="#A"/><use transform="matrix(0.05,0,0,0.05,35.900000000000006,0)" xlink:href="#B"/><use transform="matrix(0.05,0,0,0.05,39.85000000000001,0)" xlink:href="#C"/><use transform="matrix(0.05,0,0,0.05,43.80000000000001,0)" xlink:href="#B"/><use transform="matrix(0.05,0,0,0.05,47.750000000000014,0)" xlink:href="#v"/><use transform="matrix(0.05,0,0,0.05,57.750000000000014,0)" xlink:href="#w"/><use transform="matrix(0.05,0,0,0.05,63.70000000000002,0)" xlink:href="#B"/><use transform="matrix(0.05,0,0,0.05,67.65000000000002,0)" xlink:href="#D"/><use transform="matrix(0.05,0,0,0.05,72.65000000000002,0)" xlink:href="#E"/></g><path d="M206 0h-36l-40-164L89 0H53L-1-190h32L70-26l43-164h34l41 164 42-164h31" id="F"/><g id="d"><use transform="matrix(0.05,0,0,0.05,0,0)" xlink:href="#F"/><use transform="matrix(0.05,0,0,0.05,12.950000000000001,0)" xlink:href="#B"/><use transform="matrix(0.05,0,0,0.05,16.900000000000002,0)" xlink:href="#D"/><use transform="matrix(0.05,0,0,0.05,21.900000000000002,0)" xlink:href="#y"/></g><path d="M205 0l-28-72H64L36 0H1l101-248h38L239 0h-34zm-38-99l-47-123c-12 45-31 82-46 123h93" id="G"/><path d="M85-194c31 0 48 13 60 33l-1-100h32l1 261h-30c-2-10 0-23-3-31C134-8 116 4 85 4 32 4 16-35 15-94c0-66 23-100 70-100zm9 24c-40 0-46 34-46 75 0 40 6 74 45 74 42 0 51-32 51-76 0-42-9-74-50-73" id="H"/><path d="M84 4C-5 8 30-112 23-190h32v120c0 31 7 50 39 49 72-2 45-101 50-169h31l1 190h-30c-1-10 1-25-2-33-11 22-28 36-60 37" id="I"/><path d="M117-194c89-4 53 116 60 194h-32v-121c0-31-8-49-39-48C34-167 62-67 57 0H25l-1-190h30c1 10-1 24 2 32 11-22 29-35 61-36" id="J"/><path d="M100-194c62-1 85 37 85 99 1 63-27 99-86 99S16-35 15-95c0-66 28-99 85-99zM99-20c44 1 53-31 53-75 0-43-8-75-51-75s-53 32-53 75 10 74 51 75" id="K"/><g id="e"><use transform="matrix(0.05,0,0,0.05,0,0)" xlink:href="#G"/><use transform="matrix(0.05,0,0,0.05,12,0)" xlink:href="#w"/><use transform="matrix(0.05,0,0,0.05,17.95,0)" xlink:href="#H"/><use transform="matrix(0.05,0,0,0.05,27.950000000000003,0)" xlink:href="#I"/><use transform="matrix(0.05,0,0,0.05,37.95,0)" xlink:href="#B"/><use transform="matrix(0.05,0,0,0.05,41.900000000000006,0)" xlink:href="#J"/><use transform="matrix(0.05,0,0,0.05,51.900000000000006,0)" xlink:href="#K"/></g><path d="M30-248c118-7 216 8 213 122C240-48 200 0 122 0H30v-248zM63-27c89 8 146-16 146-99s-60-101-146-95v194" id="L"/><path d="M177-190C167-65 218 103 67 71c-23-6-38-20-44-43l32-5c15 47 100 32 89-28v-30C133-14 115 1 83 1 29 1 15-40 15-95c0-56 16-97 71-98 29-1 48 16 59 35 1-10 0-23 2-32h30zM94-22c36 0 50-32 50-73 0-42-14-75-50-75-39 0-46 34-46 75s6 73 46 73" id="M"/><g id="f"><use transform="matrix(0.05,0,0,0.05,0,0)" xlink:href="#L"/><use transform="matrix(0.05,0,0,0.05,12.950000000000001,0)" xlink:href="#t"/><use transform="matrix(0.05,0,0,0.05,22.950000000000003,0)" xlink:href="#u"/><use transform="matrix(0.05,0,0,0.05,31.950000000000003,0)" xlink:href="#B"/><use transform="matrix(0.05,0,0,0.05,35.900000000000006,0)" xlink:href="#M"/><use transform="matrix(0.05,0,0,0.05,45.900000000000006,0)" xlink:href="#J"/></g><path d="M115-194c55 1 70 41 70 98S169 2 115 4C84 4 66-9 55-30l1 105H24l-1-265h31l2 30c10-21 28-34 59-34zm-8 174c40 0 45-34 45-75s-6-73-45-74c-42 0-51 32-51 76 0 43 10 73 51 73" id="N"/><g id="g"><use transform="matrix(0.05,0,0,0.05,0,0)" xlink:href="#p"/><use transform="matrix(0.05,0,0,0.05,5,0)" xlink:href="#A"/><use transform="matrix(0.05,0,0,0.05,19.950000000000003,0)" xlink:href="#N"/><use transform="matrix(0.05,0,0,0.05,29.950000000000003,0)" xlink:href="#C"/><use transform="matrix(0.05,0,0,0.05,33.900000000000006,0)" xlink:href="#t"/><use transform="matrix(0.05,0,0,0.05,43.900000000000006,0)" xlink:href="#A"/><use transform="matrix(0.05,0,0,0.05,58.85,0)" xlink:href="#t"/><use transform="matrix(0.05,0,0,0.05,68.85000000000001,0)" xlink:href="#J"/><use transform="matrix(0.05,0,0,0.05,78.85000000000001,0)" xlink:href="#D"/><use transform="matrix(0.05,0,0,0.05,83.85000000000001,0)" xlink:href="#v"/><use transform="matrix(0.05,0,0,0.05,93.85000000000001,0)" xlink:href="#D"/><use transform="matrix(0.05,0,0,0.05,98.85000000000001,0)" xlink:href="#B"/><use transform="matrix(0.05,0,0,0.05,102.80000000000001,0)" xlink:href="#K"/><use transform="matrix(0.05,0,0,0.05,112.80000000000001,0)" xlink:href="#J"/></g><path d="M16-82v-28h88v28H16" id="O"/><g id="i"><use transform="matrix(0.044444444444444446,0,0,0.044444444444444446,0,0)" xlink:href="#o"/><use transform="matrix(0.044444444444444446,0,0,0.044444444444444446,11.511111111111111,0)" xlink:href="#p"/><use transform="matrix(0.044444444444444446,0,0,0.044444444444444446,15.955555555555556,0)" xlink:href="#q"/><use transform="matrix(0.044444444444444446,0,0,0.044444444444444446,29.244444444444447,0)" xlink:href="#r"/><use transform="matrix(0.044444444444444446,0,0,0.044444444444444446,39.91111111111111,0)" xlink:href="#O"/><use transform="matrix(0.044444444444444446,0,0,0.044444444444444446,45.2,0)" xlink:href="#u"/><use transform="matrix(0.044444444444444446,0,0,0.044444444444444446,53.2,0)" xlink:href="#D"/><use transform="matrix(0.044444444444444446,0,0,0.044444444444444446,57.644444444444446,0)" xlink:href="#E"/><use transform="matrix(0.044444444444444446,0,0,0.044444444444444446,65.64444444444445,0)" xlink:href="#C"/><use transform="matrix(0.044444444444444446,0,0,0.044444444444444446,69.15555555555555,0)" xlink:href="#t"/></g><path d="M108 0H70L1-190h34L89-25l56-165h34" id="P"/><path d="M33-154v-36h34v36H33zM33 0v-36h34V0H33" id="Q"/><g id="j"><use transform="matrix(0.044444444444444446,0,0,0.044444444444444446,0,0)" xlink:href="#r"/><use transform="matrix(0.044444444444444446,0,0,0.044444444444444446,10.666666666666668,0)" xlink:href="#P"/><use transform="matrix(0.044444444444444446,0,0,0.044444444444444446,18.666666666666668,0)" xlink:href="#v"/><use transform="matrix(0.044444444444444446,0,0,0.044444444444444446,27.555555555555557,0)" xlink:href="#C"/><use transform="matrix(0.044444444444444446,0,0,0.044444444444444446,31.066666666666666,0)" xlink:href="#I"/><use transform="matrix(0.044444444444444446,0,0,0.044444444444444446,39.95555555555556,0)" xlink:href="#v"/><use transform="matrix(0.044444444444444446,0,0,0.044444444444444446,48.84444444444445,0)" xlink:href="#D"/><use transform="matrix(0.044444444444444446,0,0,0.044444444444444446,53.28888888888889,0)" xlink:href="#B"/><use transform="matrix(0.044444444444444446,0,0,0.044444444444444446,56.800000000000004,0)" xlink:href="#K"/><use transform="matrix(0.044444444444444446,0,0,0.044444444444444446,65.6888888888889,0)" xlink:href="#J"/><use transform="matrix(0.044444444444444446,0,0,0.044444444444444446,74.57777777777778,0)" xlink:href="#Q"/></g><g id="k"><use transform="matrix(0.044444444444444446,0,0,0.044444444444444446,0,0)" xlink:href="#p"/><use transform="matrix(0.044444444444444446,0,0,0.044444444444444446,4.444444444444445,0)" xlink:href="#J"/><use transform="matrix(0.044444444444444446,0,0,0.044444444444444446,13.333333333333334,0)" xlink:href="#D"/><use transform="matrix(0.044444444444444446,0,0,0.044444444444444446,17.77777777777778,0)" xlink:href="#t"/><use transform="matrix(0.044444444444444446,0,0,0.044444444444444446,26.666666666666668,0)" xlink:href="#w"/><use transform="matrix(0.044444444444444446,0,0,0.044444444444444446,31.955555555555556,0)" xlink:href="#P"/><use transform="matrix(0.044444444444444446,0,0,0.044444444444444446,39.955555555555556,0)" xlink:href="#B"/><use transform="matrix(0.044444444444444446,0,0,0.044444444444444446,43.46666666666667,0)" xlink:href="#t"/><use transform="matrix(0.044444444444444446,0,0,0.044444444444444446,52.355555555555554,0)" xlink:href="#F"/></g><g id="l"><use transform="matrix(0.05,0,0,0.05,0,0)" xlink:href="#s"/><use transform="matrix(0.05,0,0,0.05,12.950000000000001,0)" xlink:href="#t"/><use transform="matrix(0.05,0,0,0.05,22.950000000000003,0)" xlink:href="#u"/><use transform="matrix(0.05,0,0,0.05,31.950000000000003,0)" xlink:href="#I"/><use transform="matrix(0.05,0,0,0.05,41.95,0)" xlink:href="#C"/><use transform="matrix(0.05,0,0,0.05,45.900000000000006,0)" xlink:href="#D"/><use transform="matrix(0.05,0,0,0.05,50.900000000000006,0)" xlink:href="#u"/></g><g id="m"><use transform="matrix(0.05,0,0,0.05,0,0)" xlink:href="#r"/><use transform="matrix(0.05,0,0,0.05,12,0)" xlink:href="#D"/><use transform="matrix(0.05,0,0,0.05,17,0)" xlink:href="#y"/><use transform="matrix(0.05,0,0,0.05,27,0)" xlink:href="#B"/><use transform="matrix(0.05,0,0,0.05,30.950000000000003,0)" xlink:href="#x"/><use transform="matrix(0.05,0,0,0.05,39.95,0)" xlink:href="#u"/></g><g id="n"><use transform="matrix(0.05,0,0,0.05,0,0)" xlink:href="#G"/><use transform="matrix(0.05,0,0,0.05,12,0)" xlink:href="#N"/><use transform="matrix(0.05,0,0,0.05,22,0)" xlink:href="#N"/><use transform="matrix(0.05,0,0,0.05,32,0)" xlink:href="#w"/><use transform="matrix(0.05,0,0,0.05,37.95,0)" xlink:href="#K"/><use transform="matrix(0.05,0,0,0.05,47.95,0)" xlink:href="#P"/><use transform="matrix(0.05,0,0,0.05,56.95,0)" xlink:href="#v"/><use transform="matrix(0.05,0,0,0.05,66.95,0)" xlink:href="#C"/></g></defs></g></svg>